<svg width="26px" height="26px" viewBox="0 2 26 26" version="1.1" xmlns="http://www.w3.org/2000/svg" xmlns:xlink="http://www.w3.org/1999/xlink">
    <!-- Generator: Sketch 39.1 (31720) - http://www.bohemiancoding.com/sketch -->
    <desc>Created with Sketch.</desc>
    <defs>
        <path d="M12.5,25 C19.4035594,25 25,19.4035594 25,12.5 C25,5.59644063 19.4035594,0 12.5,0 C5.59644063,0 0,5.59644063 0,12.5 C0,19.4035594 5.59644063,25 12.5,25 Z" id="path-1"></path>
        <mask id="mask-2" maskContentUnits="userSpaceOnUse" maskUnits="objectBoundingBox" x="0" y="0" width="25" height="25" fill="white">
            <use xlink:href="#path-1"></use>
        </mask>
    </defs>
    <g id="Group-2-Copy-2" stroke="none" stroke-width="1" fill="none" fill-rule="evenodd" transform="translate(0.000000, 2.000000)">
        <use id="Oval-1" stroke="#7B8994" mask="url(#mask-2)" stroke-width="2" xlink:href="#path-1"></use>
        <path d="M13,12 L13,8 L12,8 L12,12 L8,12 L8,13 L12,13 L12,17 L13,17 L13,13 L17,13 L17,12 L13,12 Z" id="Combined-Shape" fill="#007EE5"></path>
    </g>
</svg>
