<?xml version="1.0" encoding="UTF-8" standalone="no"?>
<svg width="16px" height="13px" viewBox="0 0 16 13" version="1.1" xmlns="http://www.w3.org/2000/svg" xmlns:xlink="http://www.w3.org/1999/xlink">
    <!-- Generator: Sketch 40.1 (33804) - http://www.bohemiancoding.com/sketch -->
    <title>icon-Email</title>
    <desc>Created with Sketch.</desc>
    <defs></defs>
    <g id="✅✅-Supernav" stroke="none" stroke-width="1" fill="none" fill-rule="evenodd">
        <g id="Supernavs" transform="translate(-903.000000, -1832.000000)" fill="#0070E0">
            <path d="M918.694332,1834.3608 C918.547517,1833.60207 918.347301,1833.04076 918.092574,1832.81465 C916.861907,1831.72225 905.306975,1831.73467 903.966115,1832.81465 C903.692196,1833.03527 903.478679,1833.58597 903.322842,1834.33241 C905.385844,1836.01197 908.983096,1838.68244 911,1838.68244 C913.005576,1838.68244 916.605619,1836.04189 918.694332,1834.3608 Z M918.85007,1835.40166 C919.200161,1838.47255 918.932935,1843.17638 918.092574,1844.02688 C916.903618,1845.23018 905.200463,1845.17015 903.966115,1844.02688 C903.093329,1843.21848 902.784423,1838.48751 903.152357,1835.40352 C905.473639,1837.17641 909.092254,1839.68244 911,1839.68244 C912.908411,1839.68244 916.528884,1837.17466 918.85007,1835.40166 Z" id="icon-Email"></path>
        </g>
    </g>
</svg>