<?xml version="1.0" encoding="UTF-8" standalone="no"?>
<svg width="15px" height="19px" viewBox="0 0 15 19" version="1.1" xmlns="http://www.w3.org/2000/svg" xmlns:xlink="http://www.w3.org/1999/xlink">
    <!-- Generator: Sketch 40.1 (33804) - http://www.bohemiancoding.com/sketch -->
    <title>icon-Phone</title>
    <desc>Created with Sketch.</desc>
    <defs></defs>
    <g id="✅✅-Supernav" stroke="none" stroke-width="1" fill="none" fill-rule="evenodd">
        <g id="Supernavs" transform="translate(-1092.000000, -1829.000000)" fill="#0070E0">
            <path d="M1094.25813,1829.95661 C1092.49415,1831.39222 1091.94896,1832.81519 1092.00369,1835.25803 C1092.05842,1837.70192 1092.52362,1839.40696 1094.24024,1842.03083 C1095.9558,1844.65469 1097.33247,1845.76297 1099.55007,1846.79231 C1101.76662,1847.82165 1103.28853,1847.89217 1105.31037,1846.8502 C1107.33326,1845.80823 1107.55008,1844.61891 1105.90503,1842.62022 C1104.25998,1840.62154 1103.46219,1840.62996 1101.81714,1841.81822 C1100.17315,1843.00649 1098.75018,1842.72652 1097.07987,1840.17317 C1095.40956,1837.61877 1095.72215,1836.20317 1097.47034,1835.17277 C1099.21748,1834.14133 1099.54481,1833.41406 1098.37233,1831.10594 C1097.19985,1828.79782 1096.02211,1828.52101 1094.25813,1829.95661" id="icon-Phone"></path>
        </g>
    </g>
</svg>