<?xml version="1.0" encoding="UTF-8" standalone="no"?>
<svg width="36px" height="34px" viewBox="0 0 36 34" version="1.1" xmlns="http://www.w3.org/2000/svg" xmlns:xlink="http://www.w3.org/1999/xlink" xmlns:sketch="http://www.bohemiancoding.com/sketch/ns">
    <!-- Generator: Sketch 3.3 (11970) - http://www.bohemiancoding.com/sketch -->
    <title>Imported Layers Copy</title>
    <desc>Created with Sketch.</desc>
    <defs></defs>
    <g id="Page-1" stroke="none" stroke-width="1" fill="none" fill-rule="evenodd" sketch:type="MSPage">
        <g id="cover" sketch:type="MSArtboardGroup" transform="translate(-42.000000, -64.000000)" fill="#FFFFFF">
            <g id="Imported-Layers-Copy" sketch:type="MSLayerGroup" transform="translate(42.000000, 64.000000)">
                <path d="M10.7218868,0.229326531 L0.298528302,7.18163265 L7.506,13.0775102 L18.0156226,6.44785714 L10.7218868,0.229326531" id="Fill-1" sketch:type="MSShapeGroup"></path>
                <path d="M0.298528302,18.9737347 L10.7218868,25.9260408 L18.0156226,19.7068163 L7.506,13.0775102 L0.298528302,18.9737347" id="Fill-2" sketch:type="MSShapeGroup"></path>
                <path d="M18.0156226,19.7068163 L25.3096981,25.9260408 L35.7330566,18.9737347 L28.5255849,13.0775102 L18.0156226,19.7068163" id="Fill-3" sketch:type="MSShapeGroup"></path>
                <path d="M35.7330566,7.18163265 L25.3096981,0.229326531 L18.0156226,6.44785714 L28.5255849,13.0775102 L35.7330566,7.18163265" id="Fill-4" sketch:type="MSShapeGroup"></path>
                <path d="M18.0370189,21.0449592 L10.7218868,27.2457959 L7.59192453,25.1579184 L7.59192453,27.4983673 L18.0370189,33.8973061 L28.4824528,27.4983673 L28.4824528,25.1579184 L25.3521509,27.2457959 L18.0370189,21.0449592" id="Fill-5" sketch:type="MSShapeGroup"></path>
            </g>
        </g>
    </g>
</svg>